# AST/ASF file generated using VICON BodyLanguage
# -----------------------------------------------
:version 1.10
:name VICON
:units
  mass 1.0
  length 0.45
  angle deg
:documentation
   .ast/.asf automatically generated from VICON data using
   VICON BodyBuilder and BodyLanguage model FoxedUp or BRILLIANT.MOD
:root
   order TX TY TZ RX RY RZ
   axis XYZ
   position 0 0 0  
   orientation 0 0 0 
:bonedata
  begin
     id 1 
     name lhipjoint
     direction 0.596438 -0.722117 0.35044 
     length 2.43043 
     axis 0 0 0  XYZ
  end
  begin
     id 2 
     name lfemur
     direction 0.34202 -0.939693 0  
     length 7.0339  
     axis 0 0 20  XYZ
    dof rx ry rz
    limits (-160.0 20.0)
           (-70.0 70.0)
           (-60.0 70.0)
  end
  begin
     id 3 
     name ltibia
     direction 0.34202 -0.939693 0   
     length 7.56602   
     axis 0 0 20   XYZ
    dof rx
    limits (-10.0 170.0)
  end
  begin
     id 4 
     name lfoot
     direction 0.0985677 -0.270812 0.957572   
     length 1.85172   
     axis -90 7.62852e-016 20   XYZ
    dof rx rz
    limits (-45.0 90.0)
           (-70.0 20.0)
  end
  begin
     id 5 
     name ltoes
     direction 1.53534e-011 -4.21843e-011 1   
     length 0.929904   
     axis -90 7.62852e-016 20   XYZ
    dof rx
    limits (-90.0 20.0)
  end
  begin
     id 6 
     name rhipjoint
     direction -0.585088 -0.729594 0.354068   
     length 2.40552  
     axis 0 0 0  XYZ 
  end
  begin
     id 7 
     name rfemur
     direction -0.34202 -0.939693 0   
     length 7.12573   
     axis 0 0 -20   XYZ
    dof rx ry rz
    limits (-160.0 20.0)
           (-70.0 70.0)
           (-70.0 60.0)
  end
  begin
     id 8 
     name rtibia
     direction -0.34202 -0.939693 0   
     length 7.35777   
     axis 0 0 -20   XYZ
    dof rx
    limits (-10.0 170.0)
 end
 begin
     id 9 
     name rfoot
     direction -0.120907 -0.33219 0.935431   
     length 2.0994  
     axis -90 -7.62852e-016 -20   XYZ
    dof rx rz
    limits (-45.0 90.0)
           (-20.0 70.0)
  end
  begin
     id 10 
     name rtoes
     direction -1.53577e-011 -4.21787e-011 1   
     length 1.04244   
     axis -90 -7.62852e-016 -20   XYZ
    dof rx
    limits (-90.0 20.0)
  end
  begin
     id 11 
     name lowerback
     direction 0.00268363 0.993603 -0.112896   
     length 2.15839   
     axis 0 0 0   XYZ
    dof rx ry rz
    limits (-20.0 45.0)
           (-30.0 30.0)
           (-30.0 30.0)
  end
  begin
     id 12 
     name upperback
     direction 0.0272563 0.999411 -0.0208618   
     length 2.16443   
     axis 0 0 0   XYZ
    dof rx ry rz
    limits (-20.0 45.0)
           (-30.0 30.0)
           (-30.0 30.0)
  end
  begin
     id 13 
     name thorax
     direction 0.0254655 0.999174 0.0316806   
     length 2.19003   
     axis 0 0 0   XYZ
    dof rx ry rz
    limits (-20.0 45.0)
           (-30.0 30.0)
           (-30.0 30.0)
  end
  begin
     id 14 
     name lowerneck
     direction -0.0102178 0.988048 0.15381   
     length 1.61507   
     axis 0 0 0   XYZ
    dof rx ry rz
    limits (-20.0 45.0)
           (-30.0 30.0)
           (-30.0 30.0)
  end
  begin
     id 15 
     name upperneck
     direction -0.0061965 0.994088 -0.108398   
     length 1.64042   
     axis 0 0 0   XYZ
    dof rx ry rz
    limits (-20.0 45.0)
           (-30.0 30.0)
           (-30.0 30.0)
  end
  begin
     id 16
     name head
     direction -0.00151929 0.998591 -0.0530385  
     length 1.64343  
     axis 0 0 0   XYZ
    dof rx ry rz
    limits (-20.0 45.0)
           (-30.0 30.0)
           (-30.0 30.0)
  end
  begin
     id 17 
     name lclavicle
     direction 0.948974 0.284245 -0.136574  
     length 3.3483  
     axis 0 0 0   XYZ
    dof ry rz
    limits (-20.0 10.0)
           (0.0 20.0)
  end
  begin
     id 18 
     name lhumerus
     direction 1 -4.48961e-011 1.68576e-027   
     length 4.93485   
     axis -180 -30 -90   XYZ
    dof rx ry rz
    limits (-60.0 90.0)
           (-90.0 90.0)
           (-90.0 90.0)
  end
  begin
     id 19
     name lradius
     direction 1 -4.48965e-011 -2.46405e-027   
     length 3.41719   
     axis -180 -30 -90   XYZ
    dof rx
    limits (-10.0 170.0)
  end
  begin
     id 20
     name lwrist
     direction 1 -4.48968e-011 -8.00486e-028   
     length 1.7086   
     axis 3.27501e-015 90 90   XYZ
    dof ry
    limits (-180.0 0.0)
 end
  begin
     id 21 
     name lhand
     direction 1 -4.48977e-011 -1.60161e-027   
     length 0.6241   
     axis 1.02148e-015 90 90   XYZ
    dof rx rz
    limits (-90.0 90.0)
           (-45.0 45.0)
  end
  begin
     id 22 
     name lfingers
     direction 1 -4.49049e-011 -3.21275e-027   
     length 0.503166   
     axis 2.04295e-015 90 90   XYZ
    dof rx
    limits (0.0 90.0)
  end
  begin
     id 23
     name lthumb
     direction 0.707107 -6.34975e-011 0.707107   
     length 0.722448   
     axis -90 45 -1.62303e-014   XYZ
    dof rx rz
    limits (-45.0 45.0)
           (-45.0 45.0)
  end
  begin
     id 24 
     name rclavicle
     direction -0.904485 0.355099 -0.236246   
     length 3.18329  
     axis 0 0 0   XYZ 
    dof ry rz
    limits (-10.0 20.0)
           (-20.0 0.0)
  end
  begin
     id 25 
     name rhumerus
     direction -1 -4.48953e-011 1.32816e-027  
     length 5.22034   
     axis -180 30 90   XYZ
    dof rx ry rz
    limits (-90.0 60.0)
           (-90.0 90.0)
           (-90.0 90.0)
  end
  begin
     id 26 
     name rradius
     direction -1 -4.48965e-011 -3.93727e-027   
     length 3.41809   
     axis -180 30 90   XYZ
    dof rx
    limits (-10.0 170.0)
  end
  begin
     id 27 
     name rwrist
     direction -1 -4.48962e-011 -8.003e-028   
     length 1.70904   
     axis 3.27501e-015 -90 -90   XYZ
    dof ry
    limits (-180.0 0.0)
  end
  begin
     id 28
     name rhand
     direction -1 -4.49008e-011 -1.60365e-027   
     length 0.77534   
     axis 1.02148e-015 -90 -90   XYZ
    dof rx rz
    limits (-90.0 90.0)
           (-45.0 45.0)
  end
  begin
     id 29
     name rfingers
     direction -1 -4.49001e-011 -3.2064e-027   
     length 0.625099   
     axis 2.04295e-015 -90 -90   XYZ
    dof rx
    limits (0.0 90.0)
  end
  begin
     id 30
     name rthumb
     direction -0.707107 -6.34989e-011 0.707107   
     length 0.897521   
     axis -90 -45 1.62303e-014   XYZ
    dof rx rz
    limits (-45.0 45.0)
           (-45.0 45.0)
  end
:hierarchy
  begin
    root lhipjoint rhipjoint lowerback
    lhipjoint lfemur
    lfemur ltibia
    ltibia lfoot
    lfoot ltoes
    rhipjoint rfemur
    rfemur rtibia
    rtibia rfoot
    rfoot rtoes
    lowerback upperback
    upperback thorax
    thorax lowerneck lclavicle rclavicle
    lowerneck upperneck
    upperneck head
    lclavicle lhumerus
    lhumerus lradius
    lradius lwrist
    lwrist lhand lthumb
    lhand lfingers
    rclavicle rhumerus
    rhumerus rradius
    rradius rwrist
    rwrist rhand rthumb
    rhand rfingers
  end

#!OML:ASF \\sashay\E\Suitcase\Project 1\Capture day 1\Session 1\Male1.ASF
:FULLY-SPECIFIED
:DEGREES
820
root 1.21847 17.1098 15.5336 3.20807 5.92551 2.59121
lowerback 5.87336 -0.374369 -4.12666
upperback 1.15435 -0.737729 0.571294
thorax -2.04246 -0.342575 2.96245
lowerneck -7.58965 3.1449 -4.71899
upperneck 18.1022 4.76757 1.38684
head 6.61389 2.10336 1.59732
rclavicle -5.81445e-015 1.39149e-014
rhumerus -43.2143 -26.005 -59.0161
rradius 10.9015
rwrist -4.13742
rhand -8.75778 14.123
rfingers 7.12502
rthumb 17.1796 -15.1375
lclavicle -5.81445e-015 1.39149e-014
lhumerus -37.727 -2.13524 83.9502
lradius 34.1596
lwrist -0.126885
lhand 0.228301 42.1218
lfingers 7.12502
lthumb 25.809 70.3909
rfemur -19.7488 -9.46404 16.9534
rtibia 72.4809
rfoot 0.391107 -6.78617
rtoes 14.5284
lfemur -10.7985 -2.78368 -28.6747
ltibia 24.346
lfoot -12.9831 -11.7748
ltoes 34.8352
821
root 1.22114 17.1069 15.6492 2.89805 6.23148 1.59703
lowerback 6.37911 -0.489394 -3.29145
upperback 1.18377 -0.845149 1.00008
thorax -2.29174 -0.395671 2.951
lowerneck -7.60155 3.15862 -4.81066
upperneck 18.1836 4.84068 1.17425
head 6.64462 2.11318 1.55181
rclavicle 3.77691e-015 -1.47101e-014
rhumerus -43.4707 -25.5231 -58.6502
rradius 10.8644
rwrist -4.47717
rhand -8.28327 13.7194
rfingers 7.12502
rthumb 17.6363 -15.5008
lclavicle 3.77691e-015 -1.47101e-014
lhumerus -37.5622 -1.18482 83.5847
lradius 34.0618
lwrist -0.068767
lhand 0.146912 41.9109
lfingers 7.12502
lthumb 25.7311 70.1913
rfemur -20.6472 -9.48446 18.2459
rtibia 72.686
rfoot -0.684372 -6.56986
rtoes 14.1303
lfemur -10.5589 -2.88937 -27.4791
ltibia 25.0932
lfoot -13.2572 -11.9282
ltoes 35.0436
822
root 1.21233 17.0972 15.7565 3.06915 6.48721 1.64263
lowerback 6.70122 -0.524302 -3.53751
upperback 1.01239 -0.918914 1.09327
thorax -2.63767 -0.420534 3.19972
lowerneck -7.55201 3.1336 -4.83717
upperneck 18.2865 4.83266 1.05138
head 6.67262 2.09547 1.51727
rclavicle 1.72943e-014 -7.95139e-015
rhumerus -44.0075 -25.966 -57.6057
rradius 10.218
rwrist -3.73681
rhand -8.30778 14.6126
rfingers 7.12502
rthumb 17.6127 -14.6097
lclavicle 1.72943e-014 -7.95139e-015
lhumerus -37.1562 -0.884054 83.34
lradius 33.4637
lwrist 0.344034
lhand 0.286849 43.6029
lfingers 7.12502
lthumb 25.8651 71.8639
rfemur -22.1266 -9.51204 18.426
rtibia 72.8992
rfoot -1.71093 -6.31465
rtoes 13.916
lfemur -10.8129 -3.00665 -27.3766
ltibia 25.8973
lfoot -13.4345 -12.1552
ltoes 35.2955
823
root 1.21003 17.0826 15.8642 3.24 6.61071 1.5226
lowerback 6.91315 -0.617846 -3.49294
upperback 0.925157 -1.04573 1.17883
thorax -2.83526 -0.478182 3.2795
lowerneck -7.69978 3.1852 -4.89512
upperneck 18.3692 4.93361 0.987392
head 6.72294 2.13231 1.51864
rclavicle -6.36111e-015 -3.97569e-016
rhumerus -43.8721 -24.5328 -58.3792
rradius 10.4667
rwrist -5.3199
rhand -8.12474 14.0732
rfingers 7.12502
rthumb 17.7888 -15.1331
lclavicle -6.36111e-015 -3.97569e-016
lhumerus -36.9312 -0.055264 82.8371
lradius 33.5932
lwrist 0.282946
lhand -0.0335686 44.342
lfingers 7.12502
lthumb 25.5582 72.6474
rfemur -23.6127 -9.33056 18.7837
rtibia 72.9157
rfoot -2.67839 -6.19324
rtoes 13.6402
lfemur -11.117 -3.24752 -27.1119
ltibia 26.7468
lfoot -13.6036 -12.1319
ltoes 35.3029
824
root 1.20949 17.0716 15.9726 3.36915 6.69666 1.43592
lowerback 7.09701 -0.697596 -3.50374
upperback 0.846682 -1.15796 1.23234
thorax -3.00878 -0.528665 3.35627
lowerneck -7.657 3.24063 -4.77471
upperneck 18.3694 5.01831 0.82704
head 6.72086 2.16765 1.45317
rclavicle 2.01269e-014 -2.10712e-014
rhumerus -44.5207 -25.0648 -57.5384
rradius 10.4962
rwrist -4.71506
rhand -7.68119 13.9407
rfingers 7.12502
rthumb 18.2156 -15.2264
lclavicle 2.01269e-014 -2.10712e-014
lhumerus -36.7084 0.798722 82.339
lradius 33.3538
lwrist -0.231657
lhand -0.321496 45.8252
lfingers 7.12502
lthumb 25.2824 74.1698
rfemur -24.9439 -9.11461 19.0409
rtibia 72.7576
rfoot -3.66425 -6.09819
rtoes 13.1025
lfemur -11.2877 -3.52917 -26.9028
ltibia 27.5015
lfoot -13.7321 -12.0503
ltoes 35.1698
825
root 1.20668 17.0648 16.0924 3.40318 6.74064 1.32766
lowerback 7.17986 -0.669236 -3.50055
upperback 0.888921 -1.11968 1.30834
thorax -3.01304 -0.509829 3.43115
lowerneck -7.72441 3.19088 -4.8064
upperneck 18.3364 4.9729 0.746245
head 6.72542 2.13733 1.43014
rclavicle -6.01324e-015 -3.97569e-015
rhumerus -44.882 -24.555 -57.5939
rradius 10.9495
rwrist -5.13773
rhand -7.19409 13.0262
rfingers 7.12502
rthumb 18.6841 -16.0965
lclavicle -6.01324e-015 -3.97569e-015
lhumerus -36.4356 1.84031 81.7994
lradius 33.607
lwrist -0.458878
lhand -0.718493 46.6218
lfingers 7.12502
lthumb 24.902 75.0196
rfemur -26.0364 -8.74467 19.313
rtibia 72.3648
rfoot -4.65797 -6.15577
rtoes 12.3873
lfemur -11.3384 -3.47455 -26.6425
ltibia 28.2554
lfoot -13.8745 -12.2991
ltoes 35.1349
826
root 1.20828 17.0581 16.203 3.49744 6.8074 1.05871
lowerback 7.41519 -0.730574 -3.20836
upperback 0.788077 -1.18436 1.35933
thorax -3.24852 -0.538647 3.3319
lowerneck -7.67376 3.22621 -4.73318
upperneck 18.3114 5.02216 0.661605
head 6.71144 2.15949 1.39328
rclavicle -3.08116e-015 7.55382e-015
rhumerus -45.1593 -25.0237 -56.8108
rradius 10.1533
rwrist -4.62237
rhand -7.36087 14.1165
rfingers 7.12502
rthumb 18.5237 -15.0216
lclavicle -3.08116e-015 7.55382e-015
lhumerus -36.3977 2.1007 81.5119
lradius 33.6764
lwrist -0.745317
lhand -1.79676 46.4773
lfingers 7.12502
lthumb 23.8683 75.0142
rfemur -27.1687 -8.32793 19.7432
rtibia 71.7683
rfoot -5.57376 -6.31779
rtoes 11.4852
lfemur -11.4373 -3.60795 -26.2228
ltibia 28.9126
lfoot -13.8944 -12.407
ltoes 35.123
827
root 1.20505 17.047 16.3206 3.6118 6.85378 1.02295
lowerback 7.54037 -0.686757 -3.07976
upperback 0.6734 -1.12383 1.25207
thorax -3.44703 -0.505188 3.14611
lowerneck -7.39533 3.16952 -4.55339
upperneck 18.2095 4.90524 0.635758
head 6.63775 2.11667 1.33904
rclavicle -2.48481e-015 2.38542e-015
rhumerus -45.1 -21.5231 -59.6613
rradius 11.2714
rwrist -9.12399
rhand -6.82377 12.9873
rfingers 7.12502
rthumb 19.0403 -16.1008
lclavicle -2.48481e-015 2.38542e-015
lhumerus -36.4586 2.00616 81.1386
lradius 34.0378
lwrist -1.00463
lhand -1.70398 47.6376
lfingers 7.12502
lthumb 23.9573 76.1629
rfemur -28.2653 -7.92389 19.9008
rtibia 71.0397
rfoot -6.47616 -6.50655
rtoes 10.5777
lfemur -11.4867 -3.89236 -26.0456
ltibia 29.5339
lfoot -13.8818 -12.3171
ltoes 35.332
828
root 1.19455 17.0433 16.4316 3.84781 6.88925 1.19535
lowerback 7.67306 -0.743712 -3.61069
upperback 0.576794 -1.2444 1.39521
thorax -3.59818 -0.551453 3.61202
lowerneck -7.35502 3.23782 -4.65507
upperneck 18.1301 5.04173 0.452276
head 6.60538 2.16232 1.30502
rclavicle -1.78906e-015 1.23246e-014
rhumerus -44.9833 -18.0067 -62.2103
rradius 12.5694
rwrist -13.5705
rhand -6.89396 12.7035
rfingers 7.12502
rthumb 18.9728 -16.3911
lclavicle -1.78906e-015 1.23246e-014
lhumerus -36.2829 2.69005 80.9545
lradius 34.0189
lwrist -1.33713
lhand -2.4923 47.3077
lfingers 7.12502
lthumb 23.2011 75.9303
rfemur -29.4374 -7.40627 19.843
rtibia 70.128
rfoot -7.29905 -6.85964
rtoes 9.95763
lfemur -11.6639 -3.87623 -26.0505
ltibia 30.1318
lfoot -13.83 -12.4665
ltoes 36.1216
829
root 1.19135 17.0361 16.547 4.07305 6.77581 1.24554
lowerback 7.6868 -0.780732 -3.75888
upperback 0.465448 -1.3096 1.3616
thorax -3.71349 -0.577145 3.66963
lowerneck -7.10101 3.31462 -4.45752
upperneck 17.984 5.12746 0.299132
head 6.5213 2.20849 1.22214
rclavicle 1.43622e-014 2.06736e-014
rhumerus -45.1842 -16.2592 -63.5057
rradius 13.2417
rwrist -15.7093
rhand -6.8833 11.8072
rfingers 7.12502
rthumb 18.9831 -17.2864
lclavicle 1.43622e-014 2.06736e-014
lhumerus -36.1248 2.91129 80.5794
lradius 33.9229
lwrist -1.28489
lhand -3.28732 47.0178
lfingers 7.12502
lthumb 22.4382 75.7344
rfemur -30.5273 -6.73606 19.8511
rtibia 69.0124
rfoot -8.02845 -7.2848
rtoes 9.63561
lfemur -11.8011 -3.83272 -25.9704
ltibia 30.7148
lfoot -13.8628 -12.3233
ltoes 37.0172
830
root 1.19052 17.0322 16.6572 4.04979 6.79991 1.07106
lowerback 7.8527 -0.749955 -3.55581
upperback 0.645716 -1.25132 1.44032
thorax -3.62661 -0.555801 3.632
lowerneck -7.48288 3.23499 -4.6805
upperneck 17.9201 5.06962 0.299512
head 6.56427 2.16529 1.26188
rclavicle 2.44505e-014 -2.62396e-014
rhumerus -45.2739 -16.0723 -63.603
rradius 13.4268
rwrist -15.9819
rhand -6.83302 11.6339
rfingers 7.12502
rthumb 19.0314 -17.455
lclavicle 2.44505e-014 -2.62396e-014
lhumerus -35.4538 2.96711 80.5766
lradius 33.7103
lwrist -1.54734
lhand -4.05498 47.1272
lfingers 7.12502
lthumb 21.7012 75.9308
rfemur -31.2187 -6.1731 20.0413
rtibia 67.6196
rfoot -8.67295 -7.80152
rtoes 9.51449
lfemur -11.7107 -3.81183 -25.6721
ltibia 31.3306
lfoot -14.0448 -12.0869
ltoes 37.6231
